<?xml version="1.0" encoding="UTF-8"?>
<!DOCTYPE svg PUBLIC "-//W3C//DTD SVG 1.1//EN" "http://www.w3.org/Graphics/SVG/1.1/DTD/svg11.dtd">
<!-- Creator: CorelDRAW X7 -->
<svg xmlns="http://www.w3.org/2000/svg" xml:space="preserve" width="30mm" height="30mm" version="1.1" style="shape-rendering:geometricPrecision; text-rendering:geometricPrecision; image-rendering:optimizeQuality; fill-rule:evenodd; clip-rule:evenodd"
viewBox="0 0 3000000 3000000"
 xmlns:xlink="http://www.w3.org/1999/xlink">
 <defs>
  <style type="text/css">
   <![CDATA[
    .fil0 {fill:black}
    .fil1 {fill:white}
   ]]>
  </style>
 </defs>
 <g id="Layer_x0020_1">
  <metadata id="CorelCorpID_0Corel-Layer"/>
  <g id="_2468291092832">
   <path class="fil0" d="M2905250 1511120c0,-159700 -10740,-311560 -56740,-455810 -31740,-99520 -81010,-209700 -130740,-299150 -10100,-18170 -19430,-34020 -31170,-51500 -70510,-104960 -143070,-197230 -238470,-282360l-22130 -19200c-139370,-127470 -342490,-236730 -514200,-287050 -27160,-7970 -47580,-12200 -72990,-18610 -37600,-9490 -106290,-25190 -138150,-28560 -154730,-16370 -205170,-20160 -369500,-2000 -177220,19580 -321230,68750 -481750,148960 -95140,47550 -242910,150950 -312800,224570 -75210,79220 -61640,57110 -130610,142190 -163870,202150 -278590,472980 -299860,732170 -1850,22570 -5980,90180 -9630,116130 -7730,55100 20930,255620 33940,329050 25930,146330 93970,295630 168830,422650l78500 119900c155190,209390 363770,360030 604730,461730 482700,203730 1114230,85580 1488760,-289960 152870,-153280 274920,-312030 348300,-528010 46500,-136880 85680,-297400 85680,-435140z"/>
   <path class="fil1" d="M995560 1808730c0,69640 2150,148110 51440,196570l247750 248280c35060,31760 87400,30420 135940,36250 164810,19780 361100,-21800 470900,-162030 97060,-123970 110820,-237730 110820,-418270 -24590,-8900 -13180,-5200 -41420,-32980 -88930,-87470 -41940,-66230 -272730,-66230 0,108170 18620,246490 -42700,329320 -60820,82150 -286730,123200 -326020,-93090 -21930,-120730 -11560,-463130 -11560,-599980l644830 0c0,-120250 9960,-102100 -55800,-167410 -18400,-18280 -50010,-57710 -72980,-65740 -30600,-10690 -450000,8790 -516050,-6590 0,-176710 20220,-188250 -41280,-248070 -164690,-160200 -89410,-132220 -281140,-132220l0 1182190z"/>
  </g>
 </g>
</svg>
